<mxfile host="app.diagrams.net" modified="2024-01-09T20:07:50.816Z" agent="Mozilla/5.0 (Windows NT 10.0; Win64; x64) AppleWebKit/537.36 (KHTML, like Gecko) Chrome/120.0.0.0 Safari/537.36" etag="Ok3svZC8WnndP5pzJhIh" version="22.1.17" type="github">
  <diagram name="Seite-1" id="ULfEtaH9g-QaJSUvBMsT">
    <mxGraphModel dx="993" dy="558" grid="1" gridSize="10" guides="1" tooltips="1" connect="1" arrows="1" fold="1" page="1" pageScale="1" pageWidth="827" pageHeight="1169" math="0" shadow="0">
      <root>
        <mxCell id="0" />
        <mxCell id="1" parent="0" />
        <mxCell id="NUvROa_gXDPw505vg4XF-1" value="Hotelsuche" style="swimlane;fontStyle=1;align=center;verticalAlign=top;childLayout=stackLayout;horizontal=1;startSize=26;horizontalStack=0;resizeParent=1;resizeParentMax=0;resizeLast=0;collapsible=1;marginBottom=0;whiteSpace=wrap;html=1;" vertex="1" parent="1">
          <mxGeometry x="40" y="40" width="360" height="86" as="geometry" />
        </mxCell>
        <mxCell id="NUvROa_gXDPw505vg4XF-2" value="- adapter: HotelsucheInterface" style="text;align=left;verticalAlign=top;spacingLeft=4;spacingRight=4;overflow=hidden;rotatable=0;points=[[0,0.5],[1,0.5]];portConstraint=eastwest;whiteSpace=wrap;html=1;" vertex="1" parent="NUvROa_gXDPw505vg4XF-1">
          <mxGeometry y="26" width="360" height="26" as="geometry" />
        </mxCell>
        <mxCell id="NUvROa_gXDPw505vg4XF-3" value="" style="line;strokeWidth=1;fillColor=none;align=left;verticalAlign=middle;spacingTop=-1;spacingLeft=3;spacingRight=3;rotatable=0;labelPosition=right;points=[];portConstraint=eastwest;strokeColor=inherit;" vertex="1" parent="NUvROa_gXDPw505vg4XF-1">
          <mxGeometry y="52" width="360" height="8" as="geometry" />
        </mxCell>
        <mxCell id="NUvROa_gXDPw505vg4XF-4" value="+ sucheHotel(a: SuchAuftrag): SuchErgebnis&amp;nbsp;" style="text;strokeColor=none;fillColor=none;align=left;verticalAlign=top;spacingLeft=4;spacingRight=4;overflow=hidden;rotatable=0;points=[[0,0.5],[1,0.5]];portConstraint=eastwest;whiteSpace=wrap;html=1;" vertex="1" parent="NUvROa_gXDPw505vg4XF-1">
          <mxGeometry y="60" width="360" height="26" as="geometry" />
        </mxCell>
        <mxCell id="NUvROa_gXDPw505vg4XF-5" value="ReiseAnbieter" style="swimlane;fontStyle=1;align=center;verticalAlign=top;childLayout=stackLayout;horizontal=1;startSize=26;horizontalStack=0;resizeParent=1;resizeParentMax=0;resizeLast=0;collapsible=1;marginBottom=0;whiteSpace=wrap;html=1;" vertex="1" parent="1">
          <mxGeometry x="490" y="320" width="290" height="60" as="geometry" />
        </mxCell>
        <mxCell id="NUvROa_gXDPw505vg4XF-7" value="" style="line;strokeWidth=1;fillColor=none;align=left;verticalAlign=middle;spacingTop=-1;spacingLeft=3;spacingRight=3;rotatable=0;labelPosition=right;points=[];portConstraint=eastwest;strokeColor=inherit;" vertex="1" parent="NUvROa_gXDPw505vg4XF-5">
          <mxGeometry y="26" width="290" height="8" as="geometry" />
        </mxCell>
        <mxCell id="NUvROa_gXDPw505vg4XF-8" value="+ executeQuery (d: QueryObject): QueryResult" style="text;strokeColor=none;fillColor=none;align=left;verticalAlign=top;spacingLeft=4;spacingRight=4;overflow=hidden;rotatable=0;points=[[0,0.5],[1,0.5]];portConstraint=eastwest;whiteSpace=wrap;html=1;" vertex="1" parent="NUvROa_gXDPw505vg4XF-5">
          <mxGeometry y="34" width="290" height="26" as="geometry" />
        </mxCell>
        <mxCell id="NUvROa_gXDPw505vg4XF-25" value="" style="edgeStyle=orthogonalEdgeStyle;rounded=0;orthogonalLoop=1;jettySize=auto;html=1;dashed=1;endArrow=block;endFill=0;endSize=14;" edge="1" parent="1" source="NUvROa_gXDPw505vg4XF-9" target="NUvROa_gXDPw505vg4XF-13">
          <mxGeometry relative="1" as="geometry" />
        </mxCell>
        <mxCell id="NUvROa_gXDPw505vg4XF-9" value="HotelsucheAdapter" style="swimlane;fontStyle=1;align=center;verticalAlign=top;childLayout=stackLayout;horizontal=1;startSize=26;horizontalStack=0;resizeParent=1;resizeParentMax=0;resizeLast=0;collapsible=1;marginBottom=0;whiteSpace=wrap;html=1;" vertex="1" parent="1">
          <mxGeometry x="40" y="330" width="360" height="110" as="geometry" />
        </mxCell>
        <mxCell id="NUvROa_gXDPw505vg4XF-10" value="- reiseAnbieter: ReiseAnbieter" style="text;strokeColor=none;fillColor=none;align=left;verticalAlign=top;spacingLeft=4;spacingRight=4;overflow=hidden;rotatable=0;points=[[0,0.5],[1,0.5]];portConstraint=eastwest;whiteSpace=wrap;html=1;" vertex="1" parent="NUvROa_gXDPw505vg4XF-9">
          <mxGeometry y="26" width="360" height="22" as="geometry" />
        </mxCell>
        <mxCell id="NUvROa_gXDPw505vg4XF-11" value="" style="line;strokeWidth=1;fillColor=none;align=left;verticalAlign=middle;spacingTop=-1;spacingLeft=3;spacingRight=3;rotatable=0;labelPosition=right;points=[];portConstraint=eastwest;strokeColor=inherit;" vertex="1" parent="NUvROa_gXDPw505vg4XF-9">
          <mxGeometry y="48" width="360" height="8" as="geometry" />
        </mxCell>
        <mxCell id="NUvROa_gXDPw505vg4XF-12" value="+ sucheHotel(a: SuchAuftrag): SuchErgebnis&lt;br&gt;- transformSuchAuftrag(a: SuchAuftrag): QueryObject&lt;br&gt;- transformSuchErgebnis(r: QueryResult): SuchErgebnis" style="text;strokeColor=none;fillColor=none;align=left;verticalAlign=top;spacingLeft=4;spacingRight=4;overflow=hidden;rotatable=0;points=[[0,0.5],[1,0.5]];portConstraint=eastwest;whiteSpace=wrap;html=1;" vertex="1" parent="NUvROa_gXDPw505vg4XF-9">
          <mxGeometry y="56" width="360" height="54" as="geometry" />
        </mxCell>
        <mxCell id="NUvROa_gXDPw505vg4XF-13" value="&lt;p style=&quot;margin:0px;margin-top:4px;text-align:center;&quot;&gt;&lt;i&gt;&amp;lt;&amp;lt;Interface&amp;gt;&amp;gt;&lt;/i&gt;&lt;br&gt;&lt;b&gt;HotelsucheInterface&lt;/b&gt;&lt;/p&gt;&lt;p style=&quot;margin:0px;margin-left:4px;&quot;&gt;&lt;br&gt;&lt;/p&gt;&lt;hr size=&quot;1&quot;&gt;&lt;p style=&quot;margin:0px;margin-left:4px;&quot;&gt;+ sucheHotel(a: SuchAuftrag): SuchErgebnis&lt;/p&gt;" style="verticalAlign=top;align=left;overflow=fill;fontSize=12;fontFamily=Helvetica;html=1;whiteSpace=wrap;fillColor=none;" vertex="1" parent="1">
          <mxGeometry x="40" y="170" width="360" height="104" as="geometry" />
        </mxCell>
        <mxCell id="NUvROa_gXDPw505vg4XF-14" value="SuchAuftrag" style="swimlane;fontStyle=1;align=center;verticalAlign=top;childLayout=stackLayout;horizontal=1;startSize=26;horizontalStack=0;resizeParent=1;resizeParentMax=0;resizeLast=0;collapsible=1;marginBottom=0;whiteSpace=wrap;html=1;" vertex="1" parent="1">
          <mxGeometry x="40" y="490" width="160" height="34" as="geometry" />
        </mxCell>
        <mxCell id="NUvROa_gXDPw505vg4XF-16" value="" style="line;strokeWidth=1;fillColor=none;align=left;verticalAlign=middle;spacingTop=-1;spacingLeft=3;spacingRight=3;rotatable=0;labelPosition=right;points=[];portConstraint=eastwest;strokeColor=inherit;" vertex="1" parent="NUvROa_gXDPw505vg4XF-14">
          <mxGeometry y="26" width="160" height="8" as="geometry" />
        </mxCell>
        <mxCell id="NUvROa_gXDPw505vg4XF-18" value="SuchErgebnis" style="swimlane;fontStyle=1;align=center;verticalAlign=top;childLayout=stackLayout;horizontal=1;startSize=26;horizontalStack=0;resizeParent=1;resizeParentMax=0;resizeLast=0;collapsible=1;marginBottom=0;whiteSpace=wrap;html=1;" vertex="1" parent="1">
          <mxGeometry x="240" y="490" width="160" height="34" as="geometry" />
        </mxCell>
        <mxCell id="NUvROa_gXDPw505vg4XF-20" value="" style="line;strokeWidth=1;fillColor=none;align=left;verticalAlign=middle;spacingTop=-1;spacingLeft=3;spacingRight=3;rotatable=0;labelPosition=right;points=[];portConstraint=eastwest;strokeColor=inherit;" vertex="1" parent="NUvROa_gXDPw505vg4XF-18">
          <mxGeometry y="26" width="160" height="8" as="geometry" />
        </mxCell>
        <mxCell id="NUvROa_gXDPw505vg4XF-22" style="edgeStyle=orthogonalEdgeStyle;rounded=0;orthogonalLoop=1;jettySize=auto;html=1;exitX=1;exitY=0.5;exitDx=0;exitDy=0;entryX=0;entryY=0.5;entryDx=0;entryDy=0;endArrow=open;endFill=0;" edge="1" parent="1" source="NUvROa_gXDPw505vg4XF-10" target="NUvROa_gXDPw505vg4XF-8">
          <mxGeometry relative="1" as="geometry" />
        </mxCell>
        <mxCell id="NUvROa_gXDPw505vg4XF-23" style="edgeStyle=orthogonalEdgeStyle;rounded=0;orthogonalLoop=1;jettySize=auto;html=1;entryX=0.5;entryY=0;entryDx=0;entryDy=0;dashed=1;exitX=0.206;exitY=0.991;exitDx=0;exitDy=0;exitPerimeter=0;endArrow=open;endFill=0;" edge="1" parent="1" source="NUvROa_gXDPw505vg4XF-12" target="NUvROa_gXDPw505vg4XF-14">
          <mxGeometry relative="1" as="geometry" />
        </mxCell>
        <mxCell id="NUvROa_gXDPw505vg4XF-24" style="edgeStyle=orthogonalEdgeStyle;rounded=0;orthogonalLoop=1;jettySize=auto;html=1;exitX=0.759;exitY=0.991;exitDx=0;exitDy=0;dashed=1;exitPerimeter=0;endArrow=open;endFill=0;" edge="1" parent="1" source="NUvROa_gXDPw505vg4XF-12" target="NUvROa_gXDPw505vg4XF-18">
          <mxGeometry relative="1" as="geometry" />
        </mxCell>
        <mxCell id="NUvROa_gXDPw505vg4XF-27" style="rounded=0;orthogonalLoop=1;jettySize=auto;html=1;entryX=0.25;entryY=0;entryDx=0;entryDy=0;strokeColor=default;dashed=1;endArrow=open;endFill=0;" edge="1" parent="1" target="NUvROa_gXDPw505vg4XF-13">
          <mxGeometry relative="1" as="geometry">
            <mxPoint x="132.00000000000006" y="166" as="targetPoint" />
            <mxPoint x="132" y="126" as="sourcePoint" />
          </mxGeometry>
        </mxCell>
        <mxCell id="NUvROa_gXDPw505vg4XF-28" value="Adapter Pattern" style="rounded=0;whiteSpace=wrap;html=1;" vertex="1" parent="1">
          <mxGeometry x="520" y="83" width="120" height="60" as="geometry" />
        </mxCell>
      </root>
    </mxGraphModel>
  </diagram>
</mxfile>
